<svg width="100" height="125" viewBox="0 0 100 125" fill="none" xmlns="http://www.w3.org/2000/svg">
<g clip-path="url(#clip0_508_109)">
<path d="M63.6063 64.1928L50.0825 88.0701L36.5028 64.2075H11.1842L0 82.6272L25.6787 82.6424L50.0445 124.863L74.4005 82.6666L99.9957 82.6416L88.9005 64.1928H63.6063ZM64.9988 66.5823H87.5492L95.773 80.2562L73.0201 80.2789L50.0448 120.083L27.0588 80.2539L4.24426 80.2403L12.5286 66.597H35.1135L50.0874 92.9094L64.9988 66.5823Z" fill="#0F90EB"/>
<path d="M50.1318 1.52588e-05L0.00115967 82.6274L27.058 82.6439L50.0825 42.8376L73.0198 82.6686L100 82.6413L50.1318 1.52588e-05ZM50.1263 4.6153L95.7704 80.2561L74.4002 80.278L50.0871 38.0578L25.6802 80.2538L4.24341 80.2409L50.1263 4.6153Z" fill="#0F90EB"/>
<g clip-path="url(#clip1_508_109)">
<path d="M50.0791 95.9951L64.5029 70.8467L70.4824 81.0996L50.0254 116L29.6064 81.0303L35.5908 70.8252L50.0791 95.9951ZM24.4512 78.6426L7 78.6367L13.2217 68.5H30.3838L24.4512 78.6426ZM86.7812 68.5L93 78.6367L75.5527 78.6426L69.6465 68.5H86.7812ZM83.2559 62.2119H66.2744L50.1338 34.667L33.79 62.2256H16.7637L50.1201 8L83.2559 62.2119Z" fill="#0F90EB"/>
</g>
</g>
<defs>
<clipPath id="clip0_508_109">
<rect width="100" height="124.863" fill="white"/>
</clipPath>
<clipPath id="clip1_508_109">
<rect x="7" y="115" width="86" height="1" rx="0.5" fill="white"/>
</clipPath>
</defs>
</svg>
