<svg width="373" height="49" viewBox="0 0 373 49" fill="none" xmlns="http://www.w3.org/2000/svg">
<path d="M187.671 49L174 29.2597L187.671 42.2L201 29L187.671 49Z" fill="white"/>
<path d="M172.24 4.2C175.726 4.2 177.364 6.104 177.364 9.1C177.364 12.11 175.726 14 172.24 14H169.244V4.2H172.24ZM172.184 12.628C174.662 12.628 175.936 11.55 175.936 9.1C175.936 6.65 174.662 5.586 172.184 5.586H170.63V12.628H172.184ZM182.199 6.846C184.495 6.846 185.433 8.274 185.433 10.514C185.433 12.754 184.495 14.182 182.199 14.182C179.903 14.182 178.951 12.754 178.951 10.514C178.951 8.274 179.903 6.846 182.199 6.846ZM182.199 12.796C183.543 12.796 184.047 11.928 184.047 10.514C184.047 9.1 183.543 8.232 182.199 8.232C180.855 8.232 180.337 9.1 180.337 10.514C180.337 11.928 180.855 12.796 182.199 12.796ZM195.084 7.028H196.526L194.51 14H193.11L191.5 9.002L189.89 14H188.504L186.488 7.028H187.916L189.232 11.998L190.8 7.028H192.214L193.782 11.998L195.084 7.028ZM201.367 6.846C203.173 6.846 204.013 7.826 204.013 9.884V14H202.669V9.842C202.669 8.568 201.997 8.176 201.143 8.176C200.107 8.176 199.435 8.974 199.323 9.31V14H197.993V7.028H199.281V7.672C199.351 7.602 200.163 6.846 201.367 6.846Z" fill="white"/>
</svg>
